<svg width="304" height="571" viewBox="0 0 304 571" fill="none" xmlns="http://www.w3.org/2000/svg">
<path fill-rule="evenodd" clip-rule="evenodd" d="M169.934 226.09C196.081 203.926 252.887 167.213 273.699 215.593C286.937 246.379 278.781 293.414 250.111 313.344C214.179 338.32 178.614 304.407 161.193 274.315C156.175 265.655 151.849 256.546 148.024 247.161C154.923 239.732 162.193 232.652 169.934 226.09M110.349 1.86444C95.6149 77.8885 97.487 163.525 123.015 238.373C111.574 252.058 101.771 265.887 94.1516 277.989C49.895 348.3 23.9486 441.611 27.8371 524.855C28.2651 533.951 38.8845 536.91 45.2997 533.054C41.9898 535.61 38.6475 538.126 35.2727 540.601C29.1726 531.542 24.6882 521.816 21.6448 510.881C19.7873 504.199 19.736 496.577 17.3993 490.155C16.0086 486.33 13.1078 486.426 12.1598 482.052C11.8576 480.656 9.86624 479.964 9.18267 481.533C7.31438 485.829 3.60857 487.218 1.9202 491.593C-0.742422 498.484 0.949841 511.231 2.08359 518.173C4.90704 535.46 12.3114 551.386 22.3614 565.605C26.5609 571.543 34.2296 572.048 40.1014 568.535C54.4974 559.926 67.6728 549.273 79.9826 537.919C90.6451 528.08 103.395 517.591 108.97 503.968C113.346 493.288 101.685 483.605 91.9804 489.871C80.136 497.514 71.7067 510.185 61.3004 519.737C56.8393 523.833 52.188 527.635 47.4656 531.343C48.7679 529.933 49.6946 528.092 49.993 525.783C59.6283 451.167 66.779 379.994 102.514 312.071C111.284 295.385 121.528 279.381 133.2 264.52C133.889 266.105 134.515 267.735 135.228 269.317C158.771 321.298 221.877 376.703 274.511 322.942C311.875 284.79 319.96 184.917 254.518 169.698C212.707 159.973 171.184 187.319 138.752 220.872C131.637 197.479 126.825 173.186 122.491 149.956C113.448 101.532 111.309 51.571 113.435 2.41665C113.517 0.467579 110.744 -0.180754 110.349 1.86444" fill="black"/>
</svg>
