<svg width="1276" height="1276" viewBox="0 0 1276 1276" fill="none" xmlns="http://www.w3.org/2000/svg">
<path d="M52.8592 10.6402C488.092 4.56279 921.284 4.3447 1221.68 10.6402M52.8592 10.6402C417.206 14.8566 782.219 16.6594 1221.68 10.6402M52.8592 10.6402C19.1163 8.11037 8.45077 22.7659 10.1972 57.1657M52.8592 10.6402C22.2359 5.95856 15.73 30.8207 10.1972 57.1657M1221.68 10.6402C1247.37 5.20252 1265.74 27.055 1264.34 57.1657M1221.68 10.6402C1245.69 8.06675 1259.19 25.572 1264.34 57.1657M1264.34 57.1657C1268.98 448.984 1266.59 843.622 1264.34 1220.92M1264.34 57.1657C1272.03 359.756 1271.74 663.873 1264.34 1220.92M1264.34 1220.92C1268.37 1254.18 1250.78 1270.71 1221.68 1267.44M1264.34 1220.92C1262.65 1254.3 1248.4 1273.59 1221.68 1267.44M1221.68 1267.44C969.279 1260.39 712.32 1258.11 52.8592 1267.44M1221.68 1267.44C793.258 1270.65 365.252 1271.05 52.8592 1267.44M52.8592 1267.44C20.2495 1263.97 13.1169 1251.91 10.1972 1220.92M52.8592 1267.44C20.5161 1264.77 4.34455 1247.77 10.1972 1220.92M10.1972 1220.92C15.85 761.839 18.543 303.606 10.1972 57.1657M10.1972 1220.92C4.13124 898.159 5.09114 575.024 10.1972 57.1657" stroke="#343A40" stroke-width="12" stroke-linecap="round"/>
</svg>
