<svg width="310" height="184" viewBox="0 0 310 184" fill="none" xmlns="http://www.w3.org/2000/svg">
<g clip-path="url(#clip0_1_972)">
<g filter="url(#filter0_d_1_972)">
<path d="M229.94 85.7569C240.093 90.948 248.878 98.0697 254.307 107.133C259.559 115.9 261.69 126.515 258.847 139.034L258.557 140.251L258.557 140.252C258.472 140.594 258.124 140.803 257.78 140.718C257.482 140.642 257.284 140.366 257.297 140.068L257.315 139.94C260.496 127.24 258.424 116.475 253.077 107.628C247.905 99.0713 239.688 92.3396 230.27 87.3722L229.355 86.8973C219.466 81.8417 208.306 78.6635 197.854 77.3305C187.737 76.0402 178.243 76.4743 171.192 78.6398L170.516 78.8544C170.173 78.9681 169.982 78.8909 169.87 78.8156C169.801 78.7693 169.748 78.712 169.709 78.6619L169.636 78.5495L169.636 78.5482L169.582 78.4136C169.566 78.3584 169.554 78.2943 169.555 78.2267C169.556 78.1269 169.583 77.9878 169.729 77.8262L169.8 77.7555C169.798 77.757 169.806 77.7508 169.827 77.7351C169.846 77.7202 169.873 77.7001 169.907 77.6765C169.976 77.6288 170.069 77.5686 170.183 77.4964C170.411 77.352 170.715 77.1672 171.075 76.9528C171.795 76.524 172.73 75.9834 173.705 75.4235C175.162 74.5863 176.714 73.7037 177.765 73.0968L178.627 72.5931C179.3 72.1925 180.26 71.6923 181.408 71.0963C182.55 70.5034 183.867 69.8216 185.233 69.0654C187.79 67.6507 190.55 65.9609 192.703 64.0775L193.124 63.6985C194.372 62.5485 195.433 61.2946 195.943 59.9498C196.466 58.5707 196.397 57.1181 195.431 55.6612L195.431 55.6618C194.456 54.1907 192.964 53.3672 191.188 52.9924C189.644 52.6662 187.864 52.6742 185.968 52.8923L185.148 52.9982C179.505 53.8063 172.803 56.4305 167.032 59.3211C161.629 62.0274 156.972 65.0031 154.726 67.0032L154.309 67.3895L154.308 67.3902C154.054 67.6377 153.649 67.6316 153.404 67.3794L153.323 67.277C153.162 67.0264 153.194 66.6899 153.417 66.4728C155.432 64.5124 160.435 61.2352 166.413 58.2327C172.197 55.3277 178.82 52.7176 184.427 51.813L184.966 51.7306C190.139 50.9902 194.215 51.8475 196.302 54.6727L196.498 54.9528C197.622 56.6473 197.798 58.2953 197.319 59.8886C196.861 61.4063 195.797 62.9093 194.298 64.3528L193.992 64.6405C191.818 66.6467 188.87 68.4815 186.087 70.0335C184.699 70.8077 183.361 71.5068 182.188 72.1207C181.312 72.5789 180.522 72.993 179.878 73.3527L179.284 73.6938C178.82 73.9687 177.94 74.4843 176.914 75.0776L177.237 76.0055C191.69 73.8782 212.166 76.9055 229.134 85.3514L229.94 85.7569Z" fill="black" stroke="black"/>
<path d="M271.903 106.788C272.219 106.939 272.356 107.322 272.206 107.644L272.205 107.645C268.12 116.188 264.01 124.258 261.249 133.429L261.25 133.429C261.122 133.851 260.819 135.328 260.475 136.889C260.166 138.286 259.82 139.772 259.514 140.778L259.386 141.178L259.385 141.179C259.182 141.777 258.965 142.117 258.864 142.223C258.76 142.33 258.658 142.389 258.564 142.423L258.474 142.449L258.469 142.45C258.392 142.469 258.284 142.483 258.17 142.459C258.093 142.442 257.997 142.405 257.894 142.314L257.788 142.204L257.787 142.201L257.745 142.136C257.718 142.091 257.686 142.031 257.649 141.961C257.575 141.821 257.489 141.649 257.406 141.475C257.25 141.15 257.079 140.775 257.045 140.708L257.045 140.707C255.803 138.145 254.682 135.444 253.286 132.89L253.003 132.381L253.003 132.38C249.713 126.576 245.111 121.198 239.5 117.476L238.954 117.12C238.694 116.954 238.594 116.631 238.701 116.351L238.759 116.235C238.949 115.938 239.345 115.85 239.645 116.041L239.645 116.039C245.461 119.747 250.294 125.197 253.785 131.169L254.118 131.749C255.437 134.074 256.482 136.503 257.633 138.958L258.236 140.244L258.571 138.864C258.976 137.199 259.501 135.064 259.805 133.878L260.024 133.06L260.025 133.058L260.288 132.2C262.335 125.642 265.055 119.624 267.965 113.519L271.051 107.09C271.185 106.81 271.494 106.673 271.782 106.744L271.903 106.788Z" fill="black" stroke="black"/>
</g>
</g>
<path d="M26.5479 61.4031C25.6713 62.8024 26.9271 66.8122 28.7001 68.2897C30.0602 69.3947 31.0665 68.888 31.3315 66.948C31.6359 64.9033 30.1377 62.0006 28.4323 61.2711C27.1328 60.7009 26.9764 60.7296 26.5479 61.4031Z" fill="black"/>
<path d="M14.8404 62.3338C13.9637 63.733 15.2196 67.7429 16.9926 69.2204C18.3527 70.3254 19.359 69.8186 19.624 67.8786C19.9284 65.8339 18.4302 62.9313 16.7248 62.2018C15.4253 61.6315 15.2688 61.6603 14.8404 62.3338Z" fill="black"/>
<path d="M9.88193 73.7075C10.2414 75.9226 14.3541 80.0018 18.0101 81.7375C19.1376 82.3003 21.0826 82.7031 22.8021 82.7769C25.5025 82.8751 25.8859 82.7851 29.3741 81.1786C32.7215 79.637 33.2387 79.2689 34.844 77.4042C36.889 74.9907 38.8424 69.8058 38.2223 68.3601C37.6796 67.095 36.8918 67.7176 35.3133 70.8252C33.5656 74.2272 32.5918 75.4981 30.558 76.9541C28.6144 78.3254 24.9796 79.3934 22.6935 79.2776C19.9776 79.1433 14.8713 76.3874 12.0947 73.5541C10.6811 72.1275 9.64514 72.1717 9.88193 73.7075Z" fill="black"/>
<g filter="url(#filter1_d_1_972)">
<path d="M60.4267 80.023L50.4169 56.8963L53.1921 55.6952L57.6393 65.97L68.4758 61.2797L64.0286 51.0048L66.8038 49.8036L76.8136 72.9303L74.0384 74.1315L69.5626 63.7906L58.7261 68.4809L63.2019 78.8218L60.4267 80.023ZM82.2071 70.5959L75.2145 54.4402L77.8245 53.3106L84.8171 69.4662L82.2071 70.5959ZM75.4492 51.3574C74.8766 51.6052 74.311 51.6277 73.7525 51.4249C73.216 51.2125 72.8238 50.82 72.5759 50.2474C72.3185 49.6527 72.296 49.0871 72.5084 48.5506C72.7428 48.0046 73.1463 47.6076 73.719 47.3597C74.2916 47.1119 74.8462 47.0941 75.3827 47.3065C75.9192 47.5189 76.3161 47.9224 76.5735 48.5171C76.8214 49.0897 76.8391 49.6443 76.6268 50.1808C76.4144 50.7173 76.0219 51.1095 75.4492 51.3574ZM90.3053 67.0907L83.3127 50.9351L85.8566 49.834L87.0435 52.5762L87.5061 52.376C87.5248 51.4526 87.8192 50.5014 88.3892 49.5224C88.9717 48.5119 90.089 47.6491 91.7409 46.9341C92.9523 46.4098 94.1411 46.196 95.3075 46.2926C96.4959 46.3797 97.5909 46.7949 98.5926 47.5382C99.5942 48.2815 100.41 49.38 101.039 50.8336L105.272 60.6129L102.662 61.7426L98.5146 52.1616C97.8187 50.5537 96.906 49.5627 95.7764 49.1886C94.6689 48.805 93.4324 48.9087 92.0668 49.4997C90.503 50.1766 89.4448 51.2361 88.8922 52.6783C88.3616 54.1109 88.53 55.8294 89.3976 57.8337L92.9153 65.9611L90.3053 67.0907ZM117.276 55.9664C115.271 56.8339 113.375 57.1055 111.587 56.781C109.821 56.447 108.361 55.3398 107.207 53.4594L109.442 51.8253C110.076 52.8062 110.769 53.5002 111.52 53.9072C112.262 54.2921 113.043 54.4642 113.862 54.4235C114.694 54.3511 115.517 54.1386 116.332 53.7859C117.543 53.2616 118.397 52.6046 118.892 51.815C119.387 51.0253 119.458 50.2231 119.105 49.4081C118.743 48.5712 118.149 48.1353 117.323 48.1004C116.51 48.034 115.472 48.1433 114.209 48.4283L112.754 48.7833C111.643 49.0552 110.577 49.1898 109.556 49.1872C108.535 49.1845 107.633 48.9735 106.85 48.554C106.066 48.1345 105.465 47.4402 105.046 46.4711C104.417 45.0174 104.487 43.64 105.258 42.3389C106.028 41.0378 107.339 39.9868 109.189 39.186C111.017 38.3948 112.674 38.1745 114.159 38.5253C115.657 38.8445 116.896 39.6815 117.874 41.0362L115.701 42.7221C114.998 41.6406 114.171 41.0306 113.222 40.8922C112.264 40.7317 111.234 40.8899 110.133 41.3665C109.031 41.8432 108.252 42.429 107.794 43.1239C107.327 43.7969 107.265 44.5298 107.608 45.3227C107.942 46.0936 108.487 46.5375 109.244 46.6546C110.013 46.74 110.943 46.6516 112.032 46.3893L113.487 46.0343C114.718 45.7368 115.861 45.5688 116.917 45.5303C117.985 45.4603 118.921 45.6303 119.726 46.0402C120.554 46.4406 121.191 47.1584 121.639 48.1936C122.326 49.7795 122.26 51.2593 121.442 52.633C120.647 53.9973 119.258 55.1084 117.276 55.9664ZM134.296 48.4033C133.129 48.9086 131.94 49.1224 130.73 49.0448C129.541 48.9577 128.446 48.5425 127.445 47.7992C126.455 47.0244 125.651 45.9211 125.031 44.4895L120.799 34.7102L123.409 33.5805L127.556 43.1616C128.251 44.7694 129.153 45.7652 130.261 46.1488C131.39 46.5229 132.638 46.4144 134.003 45.8234C135.545 45.1561 136.592 44.1013 137.145 42.6591C137.698 41.217 137.54 39.4937 136.673 37.4894L133.155 29.3621L135.765 28.2324L142.757 44.388L140.213 45.4891L139.027 42.7469L138.564 42.9471C138.545 43.8705 138.245 44.8375 137.662 45.8481C137.07 46.8366 135.948 47.6883 134.296 48.4033ZM148.219 42.0242L141.226 25.8686L143.77 24.7675L144.957 27.5096L145.42 27.3094C145.438 26.386 145.733 25.4348 146.303 24.4558C146.885 23.4453 148.002 22.5826 149.654 21.8676C150.866 21.3432 152.055 21.1294 153.221 21.2261C154.409 21.3132 155.504 21.7284 156.506 22.4717C157.508 23.2149 158.323 24.3134 158.952 25.7671L163.185 35.5464L160.575 36.6761L156.428 27.095C155.732 25.4872 154.819 24.4962 153.69 24.1221C152.582 23.7384 151.346 23.8421 149.98 24.4332C148.416 25.11 147.358 26.1696 146.806 27.6117C146.275 29.0443 146.443 30.7628 147.311 32.7671L150.829 40.8945L148.219 42.0242Z" fill="#0C0C0C"/>
</g>
<defs>
<filter id="filter0_d_1_972" x="151.722" y="50.9785" width="121.045" height="95.993" filterUnits="userSpaceOnUse" color-interpolation-filters="sRGB">
<feFlood flood-opacity="0" result="BackgroundImageFix"/>
<feColorMatrix in="SourceAlpha" type="matrix" values="0 0 0 0 0 0 0 0 0 0 0 0 0 0 0 0 0 0 127 0" result="hardAlpha"/>
<feOffset dx="-1" dy="4"/>
<feComposite in2="hardAlpha" operator="out"/>
<feColorMatrix type="matrix" values="0 0 0 0 0 0 0 0 0 0 0 0 0 0 0 0 0 0 1 0"/>
<feBlend mode="normal" in2="BackgroundImageFix" result="effect1_dropShadow_1_972"/>
<feBlend mode="normal" in="SourceGraphic" in2="effect1_dropShadow_1_972" result="shape"/>
</filter>
<filter id="filter1_d_1_972" x="50.417" y="12.4197" width="112.968" height="72.0659" filterUnits="userSpaceOnUse" color-interpolation-filters="sRGB">
<feFlood flood-opacity="0" result="BackgroundImageFix"/>
<feColorMatrix in="SourceAlpha" type="matrix" values="0 0 0 0 0 0 0 0 0 0 0 0 0 0 0 0 0 0 127 0" result="hardAlpha"/>
<feOffset dy="4"/>
<feComposite in2="hardAlpha" operator="out"/>
<feColorMatrix type="matrix" values="0 0 0 0 0.906944 0 0 0 0 0.906944 0 0 0 0 0.906944 0 0 0 0.32 0"/>
<feBlend mode="normal" in2="BackgroundImageFix" result="effect1_dropShadow_1_972"/>
<feBlend mode="normal" in="SourceGraphic" in2="effect1_dropShadow_1_972" result="shape"/>
</filter>
<clipPath id="clip0_1_972">
<rect width="130" height="130" fill="white" transform="translate(213.916) rotate(42.6258)"/>
</clipPath>
</defs>
</svg>
