<svg width="22" height="22" viewBox="0 0 22 22" fill="none" xmlns="http://www.w3.org/2000/svg">
<path d="M13.7305 5.76758C13.7305 5.76758 14.2305 6.26758 14.7305 7.26758C14.7305 7.26758 16.3187 4.76758 17.7305 4.26758" stroke="#6D6D6D" stroke-width="1.5" stroke-linecap="round" stroke-linejoin="round"/>
<path d="M8.74485 0.773357C6.24638 0.667577 4.31612 0.955397 4.31612 0.955397C3.09727 1.04255 0.76146 1.72587 0.76148 5.71656C0.7615 9.67332 0.73564 14.5513 0.76148 16.4959C0.76148 17.684 1.4971 20.4553 4.04326 20.6038C7.1381 20.7844 12.7127 20.8228 15.2704 20.6038C15.9551 20.5652 18.2346 20.0277 18.5231 17.5476C18.822 14.9783 18.7625 13.1927 18.7625 12.7677" stroke="#6D6D6D" stroke-width="1.5" stroke-linecap="round" stroke-linejoin="round"/>
<path d="M20.7498 5.76758C20.7498 8.529 18.5091 10.7676 15.745 10.7676C12.9809 10.7676 10.7402 8.529 10.7402 5.76758C10.7402 3.00616 12.9809 0.767578 15.745 0.767578C18.5091 0.767578 20.7498 3.00616 20.7498 5.76758Z" stroke="#6D6D6D" stroke-width="1.5" stroke-linecap="round"/>
<path d="M5.73047 11.7676H9.73044" stroke="#6D6D6D" stroke-width="1.5" stroke-linecap="round"/>
<path d="M5.73047 15.7676H13.7304" stroke="#6D6D6D" stroke-width="1.5" stroke-linecap="round"/>
</svg>
