<svg width="94" height="94" viewBox="0 0 94 94" fill="none" xmlns="http://www.w3.org/2000/svg">
<path d="M82.8896 48.9109C89.5019 52.7862 93.9456 59.9463 93.9596 68.1449C93.9831 80.4861 83.9596 90.5088 71.5758 90.5287C59.1921 90.5522 49.1341 80.5632 49.1113 68.222C49.0966 60.0235 53.5146 52.8493 60.1152 48.9476L66.5586 59.8002C66.7194 60.0719 66.6276 60.4222 66.3662 60.6007C63.9281 62.253 62.3301 65.0407 62.3359 68.1992C62.3447 73.2628 66.4727 77.362 71.5523 77.3503C76.6335 77.3415 80.7438 73.2305 80.735 68.1677C80.7298 65.0099 79.123 62.2266 76.679 60.583C76.4183 60.4053 76.3236 60.055 76.4837 59.7826L82.8896 48.9109Z" fill="#128DFF"/>
<path d="M33.3972 48.7787C30.0511 46.9111 26.2818 45.9333 22.4498 45.9389C10.0631 45.9389 0.0256958 55.9447 0.0256958 68.2859C0.0256958 80.6263 10.0631 90.6329 22.4498 90.6329C34.8946 90.6329 45.1787 80.1042 44.8659 67.7116H32.2435C31.9108 67.7116 31.6501 67.9929 31.6472 68.3226C31.6156 73.2598 27.4818 77.4538 22.4498 77.4538C17.3665 77.4538 13.2503 73.3487 13.2503 68.2852C13.2503 63.2224 17.3665 59.1172 22.4498 59.1172C23.7783 59.1172 25.0436 59.3985 26.1849 59.9059C26.4661 60.0293 26.7988 59.9353 26.9538 59.6739L33.3972 48.7787Z" fill="#8BDA67"/>
<path d="M35.2096 45.2728C28.6061 41.3857 24.1741 34.2175 24.1741 26.0189C24.1741 13.6777 34.2145 3.67188 46.5983 3.67188C58.982 3.67188 69.0224 13.6777 69.0224 26.0189C69.0224 34.2175 64.5905 41.3857 57.987 45.2728L51.5604 34.4128C51.3996 34.1411 51.4914 33.7908 51.7558 33.6123C54.1939 31.9629 55.7971 29.1775 55.7971 26.0189C55.7971 20.9561 51.6779 16.851 46.5975 16.851C41.5171 16.851 37.398 20.9561 37.398 26.0196C37.398 29.1775 39.0012 31.9629 41.44 33.6131C41.7044 33.7908 41.7955 34.1404 41.6346 34.4135L35.2096 45.2728Z" fill="#FF2A44"/>
</svg>
