<svg width="115" height="41" viewBox="0 0 115 41" fill="none" xmlns="http://www.w3.org/2000/svg">
<path d="M11.1318 25.4892C13.0335 25.7351 15.0538 25.4039 16.9089 25.2837C26.28 24.6766 35.7031 24.4329 45.0354 23.5965C66.1276 21.706 85.8128 17.0609 106.181 13.0298C108.066 12.6566 109.994 12.2995 111.935 12.1041C112.456 12.0516 108.31 11.8818 107.911 11.8987C99.9503 12.2367 92.1713 13.9433 84.5192 15.3879C69.9825 18.1321 55.6115 21.2805 41.1502 24.2269C35.2781 25.4233 17.6477 28.9742 23.5314 27.8098C42.5514 24.0455 61.1506 18.9977 79.8788 14.5051C86.341 12.955 92.8479 11.4887 99.4198 10.2221C101.151 9.88837 106.428 9.66277 104.643 9.30556C100.8 8.53619 96.7844 8.38016 92.9183 8.3435C77.2087 8.19456 61.5351 9.43126 46.2926 11.7522C32.3434 13.8763 18.3841 16.5863 4.99784 20.2447C-6.22886 23.3128 27.9409 15.253 39.535 13.1003C57.2998 9.80186 75.2798 6.3997 93.3699 4.1403C93.4902 4.12528 96.1083 3.6978 96.0551 3.66215C95.5499 3.3235 93.5256 3.53525 93.2088 3.55405C88.94 3.80724 84.7608 4.46403 80.6072 5.16346C59.345 8.74388 38.879 14.3421 19.4088 21.8368C17.2743 22.6585 15.0071 23.5575 13.0316 24.623C12.995 24.6427 18.966 23.908 19.5978 23.8137C38.1616 21.0433 56.6939 18.4029 75.522 16.6569C77.0272 16.5174 81.4706 16.559 80.005 16.1001C74.6474 14.4225 65.9705 17.3105 61.1271 18.3229C45.0219 21.6893 29.9119 26.9576 15.028 32.7326C13.8826 33.177 9.91843 34.7094 13.8729 33.217C24.3543 29.2614 35.4429 26.138 46.3912 23.083C55.7997 20.4577 65.3531 18.0787 75.08 16.2222C78.4154 15.5856 82.3003 14.4188 85.8121 14.354C87.237 14.3277 83.3364 15.417 82.0347 15.8369C71.6964 19.1723 61.328 22.4839 51.3012 26.3743C44.7578 28.9132 38.2489 31.5914 32.0267 34.6119C31.7676 34.7377 26.9722 37.0849 28.9145 36.6666C48.1534 32.5234 66.7286 27.1143 86.3553 23.8809C89.9956 23.2812 93.6544 22.633 97.3508 22.227C100.644 21.8653 95.8209 21.8322 95.1645 21.8817C72.8325 23.5654 51.2141 28.7973 30.1885 34.3362C25.7749 35.4989 21.3893 36.8664 16.8612 37.7625C14.6287 38.2044 15.9963 37.4749 17.1371 36.9406C38.6829 26.8484 62.9791 20.6394 85.7526 12.5646C89.7813 11.1362 94.0189 9.75517 97.8789 8.04383C99.5376 7.30841 91.3222 8.88579 90.8399 8.98931C75.779 12.2219 61.0985 16.3727 46.0895 19.7217C44.9591 19.9739 41.6517 20.8614 42.6683 20.3988C45.6925 19.0226 49.6068 18.453 52.8911 17.5976C60.6738 15.5705 68.66 13.5326 76.1016 10.8404C80.86 9.11896 65.4729 11.3027 60.3816 12.3103C54.5915 13.4563 48.4265 15.3086 42.2803 15.1041" stroke="#FFCE53" stroke-width="5" stroke-linecap="round"/>
</svg>
