<svg width="51" height="53" viewBox="0 0 51 53" fill="none" xmlns="http://www.w3.org/2000/svg">
<g filter="url(#filter0_d_222_36)">
<rect x="0.741058" y="0.970062" width="48.5958" height="48.5958" rx="24.2979" fill="#FFDC58" stroke="black" stroke-width="1.07977"/>
<path fill-rule="evenodd" clip-rule="evenodd" d="M24.388 40.1473C24.3878 40.1424 24.3838 40.1386 24.3789 40.1385C23.7469 40.1227 23.1001 40.061 22.4636 39.8826C22.231 39.8175 21.9934 39.7533 21.7698 39.6453C21.3761 39.458 21.0103 39.1901 20.7223 38.8572C20.577 38.6883 20.4524 38.5192 20.341 38.3188C20.2242 38.1184 20.1561 37.8858 20.1289 37.6525C20.1013 37.4448 20.1235 37.231 20.1745 37.0292C20.2299 36.8269 20.3286 36.6426 20.4437 36.4741C20.7528 36.0498 21.2768 35.7958 21.7658 35.8424C21.9192 35.8521 21.8974 35.9314 21.799 36.0515C21.694 36.1579 21.5523 36.3747 21.3949 36.4936C21.2435 36.5963 21.1559 36.751 21.0583 36.8681C20.968 36.996 20.9099 37.1363 20.8841 37.279C20.8455 37.4193 20.8384 37.57 20.8683 37.7267C20.8992 37.8828 20.9767 38.0382 21.0821 38.2218C21.2103 38.4255 21.3869 38.6028 21.5906 38.7474C21.798 38.8884 22.0296 38.9978 22.2683 39.0935C22.7959 39.3026 23.3893 39.3939 23.9888 39.4318C24.359 39.4529 24.7349 39.4583 25.1048 39.4372C25.6663 39.4043 26.2326 39.3345 26.7646 39.1697C27.1815 39.0532 27.5674 38.8753 27.9356 38.6726C28.0175 38.6286 28.0937 38.5796 28.1736 38.5323C28.4703 38.3564 28.5818 38.3245 28.7167 38.3728C28.7469 38.3836 28.7815 38.3896 28.8056 38.4034C28.8818 38.441 28.8254 38.6118 28.6204 38.8065C28.3146 39.0904 27.9575 39.3422 27.5688 39.5442C27.3741 39.6436 27.1741 39.7403 26.966 39.8141C26.7559 39.8802 26.5417 39.9359 26.3259 39.9796C25.6887 40.1139 25.037 40.1571 24.3974 40.1561C24.3924 40.1561 24.3883 40.1523 24.388 40.1473V40.1473Z" fill="#231F20"/>
<path fill-rule="evenodd" clip-rule="evenodd" d="M26.1197 40.3858C26.1189 40.3834 26.1163 40.382 26.1138 40.3827C25.7712 40.4734 25.4226 40.5381 25.073 40.5916C24.9438 40.6091 24.8173 40.6258 24.6877 40.6433C24.2312 40.6762 23.7721 40.6661 23.3196 40.6027C23.1182 40.5762 22.9175 40.5406 22.7195 40.4986C22.4684 40.4352 22.2046 40.3708 21.9905 40.2056C21.9223 40.1573 21.9764 40.0952 22.073 40.0569C22.1721 40.017 22.2996 40.0073 22.4271 40.0479C22.8729 40.215 23.3616 40.2902 23.8627 40.3342C24.1641 40.357 24.4793 40.3238 24.7857 40.2795C25.1247 40.2409 25.4611 40.171 25.7943 40.0878C25.9998 40.0388 26.2015 39.9713 26.4035 39.9089L26.8587 39.7475C27.0074 39.687 27.1551 39.6229 27.3007 39.5568C27.5236 39.4467 27.7307 39.3165 27.9465 39.2007L28.0858 39.1191C28.2637 39.0228 28.3342 39.0154 28.4033 39.0446C28.4191 39.0517 28.4376 39.0564 28.4496 39.0651C28.4896 39.093 28.4396 39.1702 28.3238 39.2715C27.9824 39.5756 27.5706 39.826 27.1312 40.0217C26.8101 40.1754 26.4706 40.2939 26.1257 40.389C26.1232 40.3897 26.1206 40.3883 26.1197 40.3858V40.3858Z" fill="#231F20"/>
<path fill-rule="evenodd" clip-rule="evenodd" d="M26.7859 42.5426C26.7885 42.5447 26.7921 42.5446 26.7947 42.5425C26.9019 42.4497 26.9939 42.3191 27.0783 42.1823C27.1112 42.133 27.1233 42.0702 27.1542 42.0179C27.2596 41.8276 27.3525 41.6218 27.4448 41.409C27.4891 41.3164 27.5214 41.2174 27.5576 41.1187C27.6066 40.9935 27.6382 40.8512 27.7791 40.7488C27.8194 40.7172 27.8657 40.7803 27.908 40.8569C27.9483 40.9378 27.9973 41.0049 27.9846 41.07C27.9235 41.2801 27.897 41.5527 27.7456 41.7886C27.6637 41.9323 27.6301 42.1031 27.5569 42.2602C27.4794 42.4334 27.3754 42.6002 27.2589 42.7586C27.175 42.8499 27.1015 42.9469 26.9994 43.0228V43.0228C26.9264 43.0822 26.848 43.1346 26.7652 43.1793L26.7635 43.1802C26.6829 43.2319 26.5923 43.2581 26.5044 43.2913C26.4369 43.3225 26.3694 43.3437 26.2993 43.3631C26.2305 43.3813 26.158 43.4142 26.0868 43.4199C26.0556 43.4239 26.0247 43.4246 25.9928 43.4219C25.875 43.4071 25.8405 43.3715 25.8317 43.253C25.8294 43.2279 25.8257 43.2034 25.8257 43.1805C25.826 43.1087 25.8794 43.0184 25.9479 42.9859C26.1576 42.8818 26.3137 42.8476 26.4664 42.7731C26.5669 42.707 26.682 42.6523 26.7762 42.5436C26.7787 42.5407 26.7829 42.5403 26.7859 42.5426V42.5426Z" fill="#231F20"/>
<path fill-rule="evenodd" clip-rule="evenodd" d="M21.5081 36.6278C21.5053 36.6237 21.5001 36.6222 21.4956 36.6241C21.413 36.6582 21.3165 36.6961 21.2328 36.7609C21.2019 36.7854 21.1835 36.8203 21.1526 36.8454C21.0398 36.9337 20.9287 37.0371 20.8468 37.1593C20.8166 37.213 20.7978 37.2764 20.8015 37.3318C20.7995 37.4107 20.8277 37.453 20.7693 37.5137C20.7485 37.5342 20.6189 37.5949 20.4743 37.6104C20.3346 37.6339 20.152 37.5671 20.1376 37.4744C20.0997 37.3086 20.1322 37.1636 20.1829 37.0428C20.2319 36.9189 20.3078 36.8172 20.3991 36.7313C20.5105 36.633 20.5599 36.4977 20.6572 36.3933C20.7653 36.2812 20.8848 36.1809 21.021 36.0986C21.1009 36.0453 21.1956 36.009 21.2849 35.9691V35.9691C21.4251 35.9105 21.5786 35.8849 21.7302 35.8735C21.732 35.8733 21.7338 35.8732 21.7356 35.8731C21.797 35.8721 21.8598 35.8573 21.9239 35.8546C21.9867 35.8576 22.0531 35.861 22.1189 35.8717C22.1491 35.8737 22.1713 35.8902 22.1955 35.9053C22.2794 35.9718 22.2814 36.0298 22.2213 36.1496C22.2075 36.1772 22.1948 36.2044 22.1793 36.2299C22.1277 36.3138 22.0501 36.3735 21.99 36.4057C21.8034 36.5111 21.7937 36.542 21.7148 36.5605C21.6656 36.5715 21.5949 36.5931 21.5216 36.631C21.5169 36.6335 21.5112 36.6321 21.5081 36.6278V36.6278Z" fill="#231F20"/>
<path fill-rule="evenodd" clip-rule="evenodd" d="M15.7439 30.9837C15.7456 30.9817 15.7456 30.9787 15.7439 30.9767C14.9409 30.0452 14.2173 29.0365 13.6387 27.9436C13.527 27.7473 13.43 27.5432 13.3346 27.3381C13.2336 27.1357 13.1426 26.9293 13.0651 26.7165C12.473 25.2363 12.231 23.6202 12.3492 22.0403C12.3683 21.6892 12.4267 21.3405 12.469 20.9917C12.5442 20.6487 12.5861 20.2983 12.6852 19.964C12.8829 19.095 13.2205 18.231 13.7438 17.5013C13.9083 17.2748 13.923 17.3332 13.8431 17.5577C13.7599 17.7823 13.6203 18.1887 13.435 18.6499C13.3531 18.855 13.2806 19.0641 13.2158 19.2749C13.1504 19.4847 13.1061 19.7055 13.0436 19.9183C12.9825 20.1325 12.9275 20.3476 12.8909 20.5671C12.8527 20.786 12.7949 21.0018 12.7718 21.223C12.6315 22.1017 12.6211 22.9986 12.7066 23.8897C12.8083 24.9587 13.1413 26.0425 13.6058 27.0387C14.111 28.1386 14.7581 29.1775 15.519 30.1304C15.9812 30.7214 16.481 31.285 17.0066 31.8227C17.7991 32.6417 18.6493 33.4136 19.5159 34.145C20.1902 34.7139 20.8763 35.2406 21.5546 35.7937C21.7033 35.9165 21.853 36.0313 21.998 36.1619C22.5407 36.6385 22.6874 36.8238 22.7411 36.9893C22.7539 37.0265 22.7753 37.0708 22.7784 37.0963C22.7871 37.1836 22.5448 37.0158 22.1396 36.6862C20.9296 35.7172 19.6196 34.7136 18.3744 33.613C17.4518 32.7957 16.5571 31.9312 15.7439 30.9908C15.7422 30.9887 15.7422 30.9858 15.7439 30.9837V30.9837Z" fill="#231F20"/>
<path fill-rule="evenodd" clip-rule="evenodd" d="M14.1355 16.8641C14.141 16.8665 14.1474 16.8648 14.1511 16.86C14.678 16.1575 15.2981 15.5393 15.9745 14.9966C16.6693 14.4737 17.4131 14.0233 18.1988 13.6624C19.7757 12.9616 21.4969 12.5796 23.2301 12.634C23.8625 12.6535 24.4935 12.7263 25.1037 12.8475C25.4112 12.9082 25.7176 12.9814 26.0214 13.071C26.3251 13.159 26.6222 13.2875 26.9209 13.3973C27.956 13.8497 28.877 14.5465 29.6114 15.388C30.3492 16.2291 30.9054 17.2085 31.2866 18.2393C32.0613 20.3029 32.21 22.5429 31.9214 24.683C31.8059 25.6366 31.6032 26.5774 31.3528 27.5001C31.1108 28.4265 30.7929 29.3267 30.4553 30.2104C30.0199 31.3463 29.4977 32.4492 28.9153 33.5169C28.3377 34.5873 27.6811 35.6127 26.9686 36.5911C26.5218 37.2003 26.4997 37.0586 26.7521 36.4639C26.8813 36.1688 27.0639 35.7513 27.2972 35.2589C27.522 34.7615 27.8006 34.1912 28.1188 33.5833C28.6861 32.5063 29.1717 31.3922 29.6366 30.2752C30.0917 29.1535 30.4804 28.0063 30.7738 26.8369C31.3659 24.5041 31.5488 22.0526 30.9849 19.7135C30.8131 19.0183 30.5717 18.3333 30.2535 17.6821C29.934 17.0313 29.5201 16.4265 29.0371 15.8878C28.5525 15.3511 27.993 14.8771 27.3609 14.5267C26.7299 14.1756 26.0596 13.9068 25.3454 13.7413C22.2205 12.9593 18.7372 13.7725 16.2343 15.8274C15.4693 16.4604 14.8044 17.2176 14.3164 18.0779C14.207 18.299 14.0895 18.5172 13.9851 18.7404L13.7283 19.4345C13.6001 19.9179 13.4665 20.4019 13.4014 20.8986L13.3548 21.1789L13.3313 21.4622L13.2863 22.0291L13.29 22.598L13.293 22.8823L13.3195 23.1659C13.3648 23.9251 13.5401 24.6713 13.7555 25.4006C13.9757 26.131 14.2936 26.8288 14.6393 27.5092C15.0011 28.1821 15.4113 28.8283 15.8574 29.4475C17.2597 31.3701 18.9862 32.9674 20.7564 34.5312C21.1478 34.8759 21.5378 35.2052 21.9275 35.5637C23.3751 36.8777 23.7685 37.4547 23.844 37.9219C23.8605 38.0286 23.8783 38.1626 23.8695 38.2233C23.8608 38.276 23.8279 38.271 23.7715 38.2236C23.7125 38.176 23.651 38.0837 23.5255 37.9649C23.2949 37.7239 22.9116 37.3486 22.381 36.8831C20.7907 35.518 19.0795 34.1298 17.5144 32.5237C15.9523 30.9234 14.4903 29.1031 13.5293 26.9644C13.1712 26.1736 12.903 25.3369 12.717 24.48C12.5274 23.6217 12.4791 22.7339 12.5063 21.8549C12.5388 20.9725 12.714 20.1058 12.9426 19.2603C13.2077 18.4045 13.6107 17.5966 14.1197 16.8685C14.1232 16.8634 14.1298 16.8616 14.1355 16.8641V16.8641Z" fill="#231F20"/>
<path fill-rule="evenodd" clip-rule="evenodd" d="M22.8236 39.5904C22.8232 39.5954 22.8266 39.6 22.8315 39.6009C23.6846 39.7558 24.5913 39.7297 25.4805 39.5848C25.8037 39.5281 26.1313 39.4382 26.4448 39.3694C26.9721 39.2327 27.5094 38.9817 27.9998 38.6907C28.4892 38.395 28.9457 38.0328 29.2639 37.5928C29.532 37.196 29.5948 36.7204 29.3568 36.3308C29.2088 36.0834 28.9604 35.8793 28.6926 35.7118C28.419 35.5507 28.1274 35.404 27.8172 35.2936C27.6246 35.2288 27.6534 35.1657 27.8518 35.1093C28.0431 35.0657 28.4368 35.0043 28.8379 35.1832C29.188 35.3396 29.5327 35.5517 29.812 35.8927C29.883 35.9745 29.94 36.0683 29.9894 36.1678C30.0943 36.3792 30.1611 36.6094 30.1798 36.8446V36.8446C30.1828 36.9614 30.1627 37.0769 30.1506 37.1927C30.062 37.6465 29.8261 38.0066 29.5703 38.305C29.3125 38.6074 29.0091 38.8353 28.6969 39.0411C28.3224 39.2841 27.934 39.5033 27.5276 39.6986C27.3242 39.796 27.1154 39.8856 26.8989 39.9631C26.7918 40.0037 26.6757 40.0333 26.5649 40.0678L26.2417 40.1383C25.2992 40.3481 24.3221 40.4579 23.3451 40.3756C22.7446 40.3229 22.1472 40.1971 21.5782 39.9769C21.1486 39.8054 20.7435 39.5624 20.387 39.2542C20.0356 38.9407 19.7483 38.5363 19.6063 38.067C19.5036 37.7035 19.4882 37.2947 19.612 36.9235C19.7396 36.5536 19.9782 36.2351 20.2628 35.9907C20.3884 35.8823 20.5156 35.783 20.6582 35.6997C20.9214 35.5443 21.1191 35.4984 21.258 35.4809C21.3997 35.4698 21.491 35.502 21.5729 35.5695C21.6101 35.5994 21.6544 35.6259 21.6786 35.6574C21.7598 35.7665 21.5709 35.9236 21.2597 36.12C20.7962 36.4053 20.4065 36.8003 20.3001 37.2219C20.2357 37.432 20.2474 37.6394 20.2967 37.8586C20.3565 38.0778 20.485 38.2916 20.6421 38.491C21.1402 39.0793 21.9652 39.4334 22.8156 39.58C22.8206 39.5808 22.8241 39.5854 22.8236 39.5904V39.5904Z" fill="#231F20"/>
<path fill-rule="evenodd" clip-rule="evenodd" d="M21.9306 38.0031C21.9291 38.0074 21.9312 38.0121 21.9354 38.0139C22.4081 38.2108 22.9334 38.3397 23.4706 38.4028C23.6679 38.427 23.8676 38.4236 24.0667 38.4313C24.7695 38.4622 25.4881 38.4102 26.1766 38.2346C26.481 38.1561 26.7804 38.0484 27.0546 37.9074C27.4074 37.7228 27.7145 37.4845 27.987 37.2196C28.0736 37.1374 28.1381 37.1844 28.1502 37.3301C28.1696 37.4781 28.1085 37.7355 27.9078 37.9181C27.1956 38.5381 26.3142 38.8271 25.4368 38.913C24.9112 38.963 24.3691 39.0435 23.8284 39.0281C23.236 39.0103 22.6402 38.9331 22.0666 38.7482C21.7145 38.6347 21.3701 38.483 21.0523 38.2783C20.8129 38.1215 20.5894 37.9312 20.4055 37.7023C20.3195 37.5832 20.2333 37.4643 20.1692 37.3311C20.0957 37.2116 20.042 37.0213 20.0453 36.8595C20.049 36.5967 20.1494 36.3634 20.2779 36.1687C20.4085 35.9734 20.5723 35.8083 20.7612 35.674C20.8431 35.6129 20.9284 35.5589 21.0224 35.5129C21.3808 35.3535 21.5446 35.4152 21.6252 35.5569C21.6443 35.5898 21.6668 35.6213 21.6762 35.6535C21.7014 35.7626 21.5853 35.8623 21.4127 35.9573C21.1496 36.0959 20.9019 36.3228 20.7673 36.5578C20.6998 36.6739 20.6703 36.7873 20.677 36.8622C20.678 36.9011 20.6898 36.931 20.7049 36.9625C20.723 37.0015 20.7733 37.0824 20.8039 37.1414C21.0386 37.508 21.4496 37.8009 21.9257 37.9923C21.9299 37.994 21.9321 37.9988 21.9306 38.0031V38.0031Z" fill="#231F20"/>
<path fill-rule="evenodd" clip-rule="evenodd" d="M23.8589 41.0741C23.8582 41.0792 23.8615 41.0839 23.8665 41.0851C24.3068 41.1873 24.7853 41.2026 25.2624 41.1596C25.4386 41.1475 25.6098 41.0985 25.785 41.0696C26.4049 40.9686 27.0175 40.7756 27.6035 40.5188C27.8606 40.3993 28.1067 40.2526 28.3295 40.0858C28.6239 39.8754 28.8582 39.6146 29.1002 39.3722C29.1817 39.2991 29.2546 39.344 29.2891 39.4833C29.3053 39.5521 29.319 39.6528 29.2985 39.7576C29.2744 39.8546 29.2277 39.9616 29.1532 40.0576C28.5944 40.6806 27.8989 41.127 27.1286 41.3623C26.6671 41.4945 26.2076 41.6869 25.7209 41.7711C25.1896 41.8674 24.6425 41.9013 24.0964 41.8466C23.7614 41.811 23.4241 41.7315 23.1082 41.6191C22.6293 41.4432 22.1768 41.1733 21.8016 40.8216C21.5085 40.5524 21.239 40.2496 21.0454 39.8942C21.0057 39.815 20.9668 39.7371 20.9336 39.6542C20.8366 39.3377 20.892 39.2165 21.0249 39.1185C21.0554 39.096 21.0829 39.0698 21.1121 39.0551C21.2058 39.0057 21.3481 39.1 21.4716 39.2722C21.6532 39.529 21.8113 39.771 21.9915 39.9929C22.1725 40.214 22.3856 40.4047 22.6273 40.5661C22.9799 40.8028 23.4169 40.9762 23.851 41.0631C23.8561 41.0641 23.8596 41.0689 23.8589 41.0741V41.0741Z" fill="#231F20"/>
<path fill-rule="evenodd" clip-rule="evenodd" d="M22.0018 20.4836C22.0063 20.4822 22.0092 20.4779 22.0089 20.4732C21.9973 20.3076 21.9965 20.1378 22.0058 19.964L22.0256 19.6918L22.0581 19.4955C22.0769 19.4247 22.1024 19.3562 22.1242 19.2864C22.2176 19.0058 22.4357 18.8232 22.6942 18.7698C22.9553 18.7181 23.2275 18.8077 23.437 18.9984C23.4876 19.0477 23.5407 19.0984 23.5826 19.1545C23.6293 19.2108 23.6736 19.2656 23.6927 19.3021C23.7461 19.3854 23.7884 19.4673 23.8287 19.5492C23.9085 19.7123 23.97 19.8734 24.025 20.0339C24.1287 20.3574 24.2157 20.6931 24.2549 21.026C24.4204 22.3582 24.22 23.7015 23.637 24.9081C23.5299 25.1279 23.4047 25.3407 23.2664 25.5468C23.1963 25.6505 23.1023 25.7553 23.0197 25.858C22.9214 25.9523 22.8214 26.0486 22.7089 26.1298C22.2494 26.4628 21.6339 26.5504 21.1294 26.4309C20.6759 26.3379 20.2738 26.1456 19.909 25.916C19.5435 25.6838 19.2149 25.4136 18.9175 25.0994C18.6154 24.7752 18.3808 24.4194 18.1834 24.0415C17.9884 23.6632 17.828 23.2634 17.7474 22.8308C17.6682 22.4038 17.6538 21.9242 17.8629 21.4801C17.9619 21.2643 18.0982 21.071 18.2962 20.9079C18.4902 20.7444 18.7614 20.6498 19.0189 20.6578C19.5411 20.6753 19.9345 20.9898 20.2312 21.2767C20.5376 21.5751 20.7911 21.9135 21.0126 22.2649C21.7956 23.5182 22.2333 24.9239 22.6489 26.2735C22.9204 27.1452 23.1587 28.0403 23.3104 28.9546C23.3816 29.4125 23.4363 29.8743 23.4504 30.3382C23.4645 30.8024 23.4406 31.2659 23.397 31.7251C23.3272 32.2977 23.2426 32.206 23.1537 31.7244C23.1047 31.4673 23.0402 31.1337 22.966 30.7463C22.8774 30.3466 22.7885 29.8861 22.7036 29.3846C22.5519 28.4951 22.2984 27.6245 22.0269 26.7478C21.7624 25.861 21.4983 24.9799 21.1774 24.1408C20.8558 23.304 20.4648 22.4834 19.9013 21.847C19.7623 21.6889 19.6052 21.5386 19.4579 21.4372C19.3048 21.3362 19.1414 21.2737 19.0027 21.2741C18.8638 21.2704 18.7426 21.32 18.6251 21.4335C18.5077 21.5476 18.408 21.7185 18.3576 21.8839C18.2271 22.3032 18.3278 22.8412 18.5258 23.3259C18.7228 23.8146 19.0175 24.2915 19.3763 24.6668C19.7516 25.0467 20.203 25.3736 20.6813 25.5905C21.1573 25.7966 21.6829 25.8946 22.094 25.7022C22.3213 25.6036 22.5166 25.4297 22.6781 25.2115C22.8422 24.9742 22.9872 24.7158 23.1074 24.4446C23.341 23.8988 23.4967 23.3101 23.5628 22.712C23.635 22.1138 23.6199 21.5053 23.5142 20.9203C23.4544 20.6306 23.3755 20.345 23.2638 20.0718C23.2084 19.9372 23.1456 19.8083 23.0748 19.6975C23.0161 19.6052 22.9862 19.57 22.9174 19.5307C22.8362 19.4847 22.7341 19.5334 22.7019 19.6176C22.6841 19.6573 22.669 19.7022 22.6626 19.7428C22.6479 19.81 22.6314 19.9076 22.6284 19.9932C22.6109 20.351 22.6515 20.7273 22.7214 21.0938C22.7922 21.4607 22.8935 21.8245 23.0352 22.1655C23.1735 22.4978 23.3618 22.8462 23.6024 23.0127C23.8015 23.1345 24.0472 23.1943 24.2831 23.1496C24.5221 23.1094 24.7567 22.9812 24.9625 22.8123C25.3716 22.471 25.6995 21.9833 25.8566 21.4765C25.9342 21.2365 25.9365 20.9606 25.9019 20.6991C25.8643 20.4417 25.7704 20.1856 25.6163 20.0543C25.4569 19.9221 25.2978 19.9238 25.1296 20.0825C24.9605 20.2446 24.8225 20.4897 24.7185 20.74C24.6325 20.9357 24.5825 21.1351 24.5332 21.3553C24.4778 21.5684 24.4409 21.7859 24.4053 22.0031C24.3412 22.4381 24.3026 22.8761 24.2932 23.3145C24.2734 24.1912 24.3398 25.0672 24.4919 25.9308C24.559 26.3114 24.6426 26.68 24.7376 27.0566C24.9108 27.7561 25.0601 28.2055 25.1407 28.5307C25.2253 28.8546 25.2387 29.0567 25.2142 29.2379C25.2028 29.3205 25.2014 29.4249 25.1806 29.4803C25.1269 29.6642 24.7114 29.1782 24.3388 28.1303C23.7995 26.5796 23.5296 24.8823 23.6034 23.1533C23.6266 22.7217 23.6672 22.2877 23.7397 21.8554C23.7803 21.6403 23.8045 21.4214 23.8565 21.2063L23.9277 20.8783C23.9592 20.7545 23.9961 20.643 24.0371 20.5293C24.1213 20.304 24.221 20.0825 24.3674 19.8586C24.5137 19.6452 24.7091 19.3824 25.1343 19.2411C25.337 19.1951 25.5626 19.1907 25.7536 19.2837C25.9553 19.3498 26.099 19.4733 26.2161 19.6032C26.4484 19.8697 26.5353 20.1493 26.5954 20.4098C26.6696 20.8028 26.679 21.163 26.5793 21.5788C26.4746 21.9574 26.3084 22.2797 26.107 22.5801C25.9036 22.8781 25.6616 23.1517 25.3619 23.3833C25.0638 23.6105 24.6919 23.8052 24.2522 23.8401C24.1452 23.8558 24.0317 23.8367 23.9226 23.8317C23.8136 23.8179 23.7078 23.7833 23.6018 23.7558C23.5024 23.7155 23.4067 23.6679 23.3111 23.6209C23.204 23.5581 23.1114 23.4819 23.0338 23.4061C22.7385 23.0976 22.5868 22.7764 22.4515 22.4569C22.1988 21.817 22.0476 21.1728 21.9946 20.494C21.9943 20.4893 21.9972 20.485 22.0018 20.4836V20.4836Z" fill="#231F20"/>
<path fill-rule="evenodd" clip-rule="evenodd" d="M35.3069 21.292C35.2992 21.3507 35.2217 21.3248 35.1012 21.2537C35.0626 21.2312 34.9716 21.1376 34.9686 21.1144C34.9626 21.0694 34.9575 21.0248 34.9602 20.9865C34.9602 20.9634 35.1126 20.72 35.1666 20.6344C35.217 20.5509 35.2831 20.4834 35.3549 20.423C35.4976 20.2961 35.6503 20.1783 35.8117 20.0709C35.8477 20.0474 35.8879 20.0306 35.9309 20.0195C36.0806 19.9843 36.2095 19.9182 36.337 19.841C36.3585 19.8285 36.3834 19.8222 36.3954 19.7899C36.4112 19.7315 36.7949 19.5795 36.8533 19.5865C36.9932 19.5922 37.1268 19.5852 37.2627 19.6023C37.2819 19.6047 37.2997 19.5909 37.3215 19.6178C37.3715 19.6795 37.4077 19.6627 37.4477 19.6627C37.5024 19.6614 37.5581 19.6678 37.6138 19.6859C37.6414 19.6946 37.6706 19.7305 37.6981 19.7587C37.7229 19.7839 37.7165 19.8846 37.7098 19.896C37.6897 19.9292 37.7112 19.9745 37.7159 20.0158V20.0158C37.7194 20.0445 37.7116 20.0715 37.6911 20.0919C37.6697 20.1131 37.6385 20.1419 37.6056 20.1711C37.5103 20.2557 37.3831 20.3245 37.2644 20.3709V20.3709C37.1711 20.4079 37.0768 20.4522 37.059 20.4659V20.4659C37.0198 20.4925 36.9673 20.475 36.926 20.4982C36.9073 20.5088 36.8859 20.5212 36.864 20.5341C36.7597 20.5955 36.6542 20.6989 36.5357 20.674C36.5307 20.673 36.5256 20.6716 36.5203 20.67C36.5038 20.6656 36.4941 20.6747 36.4834 20.6814C36.3911 20.7391 36.2853 20.7737 36.183 20.8194C36.1316 20.8439 36.0876 20.8801 36.0403 20.9113C36.0316 20.917 36.0185 20.916 36.0078 20.9187C35.9943 20.9221 35.9792 20.9231 35.9688 20.9311C35.8594 21.0097 35.7302 21.0671 35.6382 21.1708C35.6161 21.1923 35.4583 21.2423 35.4358 21.2728C35.4227 21.2886 35.31 21.2678 35.3069 21.292" fill="#231F20"/>
<path fill-rule="evenodd" clip-rule="evenodd" d="M32.0736 13.8133C32.0655 13.8737 31.9833 13.8462 31.8577 13.7737C31.8178 13.7505 31.7231 13.6545 31.7195 13.6307C31.7124 13.5837 31.7064 13.537 31.7077 13.4968C31.7077 13.4726 31.8537 13.2121 31.9027 13.1178C31.949 13.0268 32.0121 12.953 32.0806 12.8859C32.2206 12.7499 32.3699 12.6254 32.5183 12.5059C32.5515 12.4797 32.5898 12.4596 32.6321 12.4475C32.7771 12.4046 32.8932 12.324 32.9979 12.2297C33.0154 12.2139 33.0375 12.2042 33.0399 12.1683C33.0459 12.1092 33.3443 11.888 33.3926 11.8769C33.5182 11.8507 33.631 11.8064 33.7498 11.7688C33.7672 11.7645 33.7756 11.7457 33.8085 11.7638C33.885 11.8061 33.9069 11.7742 33.9404 11.7581C33.9871 11.7353 34.0351 11.7145 34.0918 11.7041C34.12 11.6987 34.1666 11.7175 34.2079 11.7289C34.2455 11.7393 34.3063 11.8336 34.3076 11.8484C34.3113 11.8904 34.3596 11.9199 34.3905 11.9548C34.4009 11.9665 34.4147 11.982 34.4217 11.9924V11.9924C34.5803 12.2049 34.186 12.5038 33.9929 12.6855C33.959 12.7174 33.9336 12.742 33.9257 12.7516C33.9082 12.7728 33.8753 12.7728 33.8471 12.7785C33.8337 12.7825 33.5732 13.0289 33.5615 13.0336C33.4957 13.0661 33.4517 13.1285 33.3551 13.1134C33.3359 13.1104 33.3259 13.1212 33.3148 13.1302C33.2195 13.2064 33.1053 13.2534 32.9973 13.3088C32.9429 13.3373 32.8989 13.3803 32.8492 13.4149C32.8402 13.4216 32.8257 13.4202 32.8147 13.4236C32.8002 13.4276 32.7838 13.4286 32.773 13.4377C32.665 13.5317 32.5223 13.5833 32.427 13.6924C32.4035 13.7146 32.234 13.7633 32.2105 13.7948C32.1964 13.8109 32.0769 13.7884 32.0736 13.8133" fill="#231F20"/>
<path fill-rule="evenodd" clip-rule="evenodd" d="M27.7269 42.4967C27.7234 42.4948 27.7191 42.4958 27.7168 42.499C27.5401 42.7505 27.3304 43.004 27.0519 43.2015C26.9461 43.269 26.8471 43.3499 26.7249 43.3921C26.5152 43.4791 26.2685 43.5012 26.0547 43.4673C25.8378 43.4344 25.6415 43.3606 25.4656 43.2653C25.3092 43.1814 25.1582 43.0951 25.0145 43.0021C24.9235 42.941 24.8302 42.8823 24.746 42.8128C24.6651 42.739 24.597 42.651 24.5402 42.5547C24.5057 42.4936 24.5694 42.4439 24.6721 42.4151V42.4151C24.9029 42.3537 25.1213 42.4877 25.3244 42.6133C25.5499 42.7529 25.7757 42.8701 26.0006 42.9568C26.2067 43.031 26.4004 42.9743 26.589 42.8699C26.7948 42.7584 26.9777 42.5735 27.1354 42.3543C27.2345 42.2211 27.3227 42.0727 27.4073 41.922C27.5325 41.6904 27.659 41.4514 27.7685 41.2044C27.8517 41.0121 27.9084 40.806 27.9994 40.6096C28.0199 40.5663 28.0353 40.521 28.0591 40.4791C28.1571 40.328 28.236 40.3099 28.3773 40.368C28.4079 40.3801 28.4377 40.3885 28.4619 40.4005C28.5351 40.4354 28.6046 40.5707 28.5764 40.6878C28.4972 41.0393 28.3505 41.3675 28.1749 41.7149C28.0477 41.9707 27.9043 42.2318 27.7372 42.4942C27.735 42.4976 27.7304 42.4988 27.7269 42.4967V42.4967Z" fill="#231F20"/>
<path fill-rule="evenodd" clip-rule="evenodd" d="M23.1914 10.008C23.2286 10.0607 23.1558 10.1087 23.0246 10.1527C22.9826 10.1668 22.8547 10.1688 22.8349 10.1543C22.7973 10.1261 22.7594 10.0979 22.7316 10.0691C22.7165 10.0506 22.6137 9.76734 22.5644 9.67436C22.5198 9.5834 22.4963 9.49177 22.4768 9.39981C22.4379 9.21319 22.3805 9.03026 22.3479 8.84498C22.3395 8.80404 22.3405 8.76174 22.3479 8.71845C22.3751 8.56908 22.3496 8.42643 22.3016 8.28815C22.2935 8.26499 22.2929 8.23982 22.2593 8.2227C22.2463 8.21648 22.2314 8.19227 22.2165 8.15781C22.1069 7.90457 22.1603 7.61973 22.1952 7.34599V7.34599C22.1975 7.32652 22.1831 7.30974 22.212 7.28557C22.2791 7.22885 22.2553 7.19361 22.26 7.15098C22.261 7.13606 22.262 7.12111 22.2631 7.10609C22.2702 7.01595 22.3174 6.93885 22.3714 6.86635V6.86635C22.3949 6.8348 22.463 6.83145 22.4758 6.83715C22.507 6.85528 22.5389 6.82608 22.5678 6.81634C22.5778 6.81299 22.5909 6.80862 22.6003 6.80761C22.6159 6.80466 22.6971 6.85679 22.7792 6.91748C22.9153 7.01814 23.0029 7.17181 23.0709 7.32686V7.32686C23.1233 7.44601 23.1803 7.57087 23.1951 7.59571V7.59571C23.2263 7.64651 23.206 7.71301 23.225 7.76954C23.2636 7.88388 23.3272 8.07322 23.327 8.08508C23.3307 8.16631 23.3713 8.2425 23.3132 8.33413C23.3022 8.35226 23.3082 8.3677 23.3119 8.38381C23.3414 8.52008 23.3314 8.66306 23.329 8.80336C23.3277 8.87519 23.3438 8.94501 23.3441 9.0165C23.3444 9.02925 23.3347 9.04302 23.3307 9.05644C23.3257 9.07322 23.3173 9.09034 23.3183 9.10645C23.33 9.27394 23.2978 9.44445 23.323 9.60959C23.3283 9.64785 23.2572 9.8348 23.2662 9.87777C23.2706 9.9026 23.1756 9.98719 23.1914 10.008" fill="#231F20"/>
<path fill-rule="evenodd" clip-rule="evenodd" d="M12.3234 10.597C12.2519 10.5876 12.2885 10.4919 12.3933 10.352C12.4265 10.3073 12.5544 10.2013 12.5819 10.1966C12.6353 10.1868 12.6873 10.1778 12.7296 10.1768C12.7544 10.1788 12.9984 10.3083 13.0914 10.3359C13.178 10.3674 13.2485 10.4151 13.3163 10.4671L13.7476 10.7682C13.7798 10.7907 13.8067 10.8205 13.8308 10.8561C13.9114 10.9803 14.0268 11.0592 14.1541 11.1203C14.1752 11.1303 14.193 11.1474 14.2272 11.135C14.2813 11.1156 14.6115 11.3119 14.6451 11.3569C14.725 11.4677 14.8173 11.561 14.9052 11.6627C14.918 11.6771 14.9405 11.6778 14.9378 11.7154C14.9314 11.8023 14.9717 11.811 15.0029 11.8359C15.0459 11.8708 15.0871 11.9097 15.1207 11.9604C15.1375 11.9852 15.1375 12.0372 15.1419 12.0815C15.1462 12.1218 15.0744 12.2158 15.0606 12.2225C15.0204 12.2417 15.0089 12.2994 14.9858 12.3427C14.9781 12.3571 14.9677 12.3759 14.9599 12.387C14.9421 12.4105 14.5723 12.4283 14.5434 12.4105C14.54 12.4088 14.4323 12.3652 14.3175 12.3178C14.2027 12.2719 14.0819 12.2242 14.055 12.2171C14.0272 12.2101 14.0127 12.1802 13.9946 12.1564C13.9869 12.1477 13.6298 12.0101 13.6174 11.999C13.5549 11.951 13.471 11.9329 13.4425 11.8322C13.4371 11.8124 13.4213 11.8067 13.4076 11.7996C13.2861 11.7345 13.1871 11.6351 13.0854 11.5405C13.0327 11.4928 12.9702 11.4572 12.9135 11.4143C12.9034 11.4066 12.8997 11.3905 12.8924 11.379C12.883 11.3649 12.8769 11.3458 12.8642 11.3364C12.7299 11.2334 12.6282 11.0931 12.4869 10.9947C12.4523 10.9729 12.3805 10.7799 12.3432 10.7547C12.3208 10.7403 12.3513 10.6007 12.3234 10.597" fill="#231F20"/>
</g>
<defs>
<filter id="filter0_d_222_36" x="0.201172" y="0.430176" width="50.7553" height="51.8351" filterUnits="userSpaceOnUse" color-interpolation-filters="sRGB">
<feFlood flood-opacity="0" result="BackgroundImageFix"/>
<feColorMatrix in="SourceAlpha" type="matrix" values="0 0 0 0 0 0 0 0 0 0 0 0 0 0 0 0 0 0 127 0" result="hardAlpha"/>
<feOffset dx="1.07977" dy="2.15955"/>
<feComposite in2="hardAlpha" operator="out"/>
<feColorMatrix type="matrix" values="0 0 0 0 0 0 0 0 0 0 0 0 0 0 0 0 0 0 1 0"/>
<feBlend mode="normal" in2="BackgroundImageFix" result="effect1_dropShadow_222_36"/>
<feBlend mode="normal" in="SourceGraphic" in2="effect1_dropShadow_222_36" result="shape"/>
</filter>
</defs>
</svg>
