<svg width="53" height="58" viewBox="0 0 53 58" fill="none" xmlns="http://www.w3.org/2000/svg">
<path d="M4.42061 56.2423C4.39443 56.6995 4.59482 57.1405 4.95655 57.4215C5.31828 57.7025 5.79507 57.7876 6.23168 57.6491L22.6899 52.4293C22.965 52.3421 23.2061 52.1716 23.3801 51.9413L50.109 16.554C50.4033 16.1643 50.472 15.6488 50.2899 15.1956C48.5431 10.8488 45.1927 7.65924 41.6357 5.60194C38.0982 3.55594 34.2122 2.54655 31.2356 2.70255C30.8091 2.7249 30.4165 2.94171 30.1704 3.29075L5.67374 38.0381C5.52384 38.2508 5.43651 38.5011 5.42164 38.7608L4.42061 56.2423Z" fill="#B3B3B3"/>
<path d="M28.3465 0.762457C31.1602 0.615025 34.9135 1.57498 38.3617 3.5693C41.8196 5.56929 45.0435 8.65202 46.7186 12.8204C46.8094 13.0468 46.775 13.3042 46.628 13.4989L19.8985 48.8868C19.8117 49.0016 19.6916 49.0871 19.5544 49.1307L3.09598 54.3498C2.87775 54.419 2.63916 54.3769 2.45832 54.2365C2.27757 54.0961 2.17687 53.8757 2.1898 53.6472L3.1913 36.1656L3.20384 36.0691C3.22278 35.9742 3.2609 35.8837 3.31708 35.804L27.8143 1.05634L27.8629 0.994142C27.9858 0.856265 28.1599 0.772238 28.3465 0.762457Z" fill="white" stroke="black" stroke-width="1.39241" stroke-linejoin="round"/>
<path d="M28.3831 1.45778L3.8864 36.2052C6.98668 36.6091 14.4185 39.627 19.3436 48.4668L46.0725 13.0796C42.8657 5.09959 33.6843 1.17995 28.3831 1.45778Z" fill="#FF5757"/>
<path d="M24.2341 6.62197C29.2799 6.49439 33.3579 8.474 36.3877 10.9743C39.4085 13.467 41.4158 16.4991 42.3496 18.5604C42.4548 18.7926 42.4249 19.0641 42.2713 19.2676L19.8991 48.8863C19.7567 49.0748 19.5283 49.1788 19.2926 49.1615C19.0569 49.1442 18.8463 49.008 18.7329 48.8007C14.0659 40.2657 6.74934 37.3108 3.78948 36.8946C3.54928 36.8608 3.34402 36.7045 3.24761 36.4819C3.15124 36.2593 3.17797 36.0028 3.31772 35.8045L23.6824 6.91687L23.7338 6.85257C23.8609 6.71127 24.0417 6.62683 24.2341 6.62197Z" fill="#F8D044" stroke="black" stroke-width="1.39241" stroke-linejoin="round"/>
<path d="M3.38565 44.9461L2.88514 53.6868L11.1143 51.0769C8.41097 47.3842 4.83548 45.451 3.38565 44.9461Z" fill="black"/>
<path d="M17.522 46.1224L40.4562 15.6506" stroke="black" stroke-width="1.39241" stroke-linecap="round" stroke-linejoin="round"/>
<path d="M9.98774 39.5454L31.4799 8.26695" stroke="black" stroke-width="1.39241" stroke-linecap="round" stroke-linejoin="round"/>
</svg>
